<svg height="512.00178pt" viewBox="0 0 512.00178 512.00178" width="512.00178pt" xmlns="http://www.w3.org/2000/svg"><path d="m340.621094 126.691406c2.660156-2.726562 4.871094-5.976562 6.417968-9.714844 6.53125-15.769531-.957031-33.847656-16.726562-40.378906s-33.847656.957032-40.378906 16.726563c-1.546875 3.730469-2.28125 7.585937-2.332032 11.390625-5.289062-1.101563-10.675781-1.929688-16.148437-2.472656v-24.996094c0-9.980469 3.15625-19.742188 9.1875-27.691406 3.933594-5.183594 6.265625-11.640626 6.265625-18.648438 0-17.742188-14.953125-31.992188-32.941406-30.8398438-15.324219.9804688-27.78125 13.4101558-28.800782 28.7343748-.503906 7.632813 1.765626 14.71875 5.898438 20.355469 6.003906 8.183594 9.484375 17.941406 9.484375 28.089844v24.996094c-5.46875.542968-10.855469 1.371093-16.144531 2.46875-.050782-3.800782-.789063-7.660157-2.332032-11.386719-6.789062-16.394531-26.054687-23.839844-42.238281-15.886719-13.78125 6.773438-20.535156 23.023438-15.609375 37.566406 1.546875 4.566406 4.027344 8.5 7.144532 11.699219-4.558594 2.992187-8.949219 6.210937-13.15625 9.652344l-17.679688-17.679688c-7.058594-7.054687-11.726562-16.191406-13.085938-26.078125-.882812-6.441406-3.800781-12.660156-8.753906-17.617187-12.070312-12.066407-31.640625-12.066407-43.707031 0-12.070313 12.070312-12.070313 31.636719 0 43.707031 4.953125 4.957031 11.171875 7.871094 17.613281 8.757812 9.890625 1.355469 19.023438 6.027344 26.082032 13.085938l17.675781 17.679688c-3.445313 4.207031-6.667969 8.609374-9.660157 13.171874-2.730468-2.660156-5.980468-4.871093-9.71875-6.417968-15.769531-6.53125-33.847656.957031-40.378906 16.726562-6.53125 15.769532.957032 33.847656 16.726563 40.378906 3.730469 1.542969 7.585937 2.28125 11.390625 2.332032-1.101563 5.289062-1.929688 10.675781-2.472656 16.144531h-24.996094c-10.148438 0-19.90625-3.480469-28.089844-9.484375-5.636719-4.132812-12.722656-6.402344-20.355469-5.894531-15.324219 1.015625-27.753906 13.472656-28.7343748 28.796875-1.1523442 17.988281 13.0976558 32.941406 30.8398438 32.941406 7.007812 0 13.464844-2.332031 18.648438-6.265625 7.949218-6.03125 17.710937-9.1875 27.691406-9.1875h24.996094c7.753906 78.085937 73.632812 139.074219 153.757812 139.074219 85.34375 0 154.527344-69.183594 154.527344-154.527344 0-54.101562-27.808594-101.699219-69.90625-129.308594zm0 0" fill="#5c87bd"/><path d="m511.9375 253.964844c-.984375-15.324219-13.410156-27.785156-28.734375-28.800782-7.636719-.503906-14.722656 1.761719-20.355469 5.898438-8.183594 6.003906-17.941406 9.484375-28.09375 9.484375h-24.996094c-3.085937-31.078125-15.378906-59.441406-34.117187-82.335937l17.683594-17.679688c7.058593-7.058594 16.191406-11.730469 26.078125-13.085938 6.445312-.886718 12.664062-3.800781 17.617187-8.757812 12.070313-12.070312 12.070313-31.636719 0-43.707031-12.070312-12.070313-31.636719-12.070313-43.707031 0-4.953125 4.953125-7.871094 11.171875-8.757812 17.617187-1.355469 9.886719-6.027344 19.023438-13.082032 26.078125l-17.695312 17.695313c-5.929688-4.851563-12.214844-9.285156-18.828125-13.222656 13.839843 23.242187 21.765625 50.417968 21.671875 79.457031-.273438 84.5625-69.453125 153.742187-154.015625 154.015625-29.039063.09375-56.214844-7.832032-79.457031-21.671875 3.9375 6.613281 8.371093 12.898437 13.222656 18.828125l-17.695313 17.695312c-7.058593 7.054688-16.191406 11.726563-26.078125 13.085938-6.445312.882812-12.664062 3.800781-17.617187 8.753906-12.070313 12.070312-12.070313 31.636719 0 43.707031 12.070312 12.070313 31.636719 12.070313 43.707031 0 4.953125-4.953125 7.871094-11.171875 8.757812-17.617187 1.355469-9.886719 6.027344-19.019532 13.085938-26.078125l17.679688-17.683594c22.894531 18.738281 51.257812 31.03125 82.335937 34.117187v24.996094c0 10.152344-3.480469 19.910156-9.484375 28.09375-4.136719 5.632813-6.402344 12.71875-5.898438 20.355469 1.015626 15.320313 13.476563 27.75 28.800782 28.734375 17.988281 1.152344 32.941406-13.101562 32.941406-30.84375 0-7.003906-2.332031-13.464844-6.265625-18.644531-6.03125-7.953125-9.1875-17.714844-9.1875-27.695313v-25.007812c30.957031-3.109375 59.300781-15.460938 82.207031-34.234375l17.8125 17.8125c7.058594 7.058593 11.726563 16.191406 13.085938 26.078125.882812 6.445312 3.800781 12.664062 8.753906 17.617187 12.070312 12.070313 31.640625 12.070313 43.707031 0 12.070313-12.070312 12.070313-31.636719 0-43.707031-4.953125-4.953125-11.171875-7.871094-17.613281-8.753906-9.890625-1.359375-19.023438-6.03125-26.082031-13.085938l-17.808594-17.8125c18.773437-22.90625 31.121094-51.25 34.230469-82.207031h25.007812c9.980469 0 19.742188 3.15625 27.695313 9.1875 5.179687 3.933594 11.640625 6.265625 18.648437 6.265625 17.742188 0 31.992188-14.953125 30.839844-32.941406zm0 0" fill="#456ea2"/><path d="m418.679688 289.933594c-6.472657-2.683594-13.335938-2.996094-19.625-1.347656-9.65625 2.527343-19.882813 1.707031-29.105469-2.109376l-73.570313-30.476562 73.574219-30.472656c9.21875-3.820313 19.445313-4.640625 29.101563-2.109375 6.292968 1.648437 13.152343 1.332031 19.625-1.347657 16.390624-6.789062 23.835937-26.058593 15.886718-42.238281-6.773437-13.78125-23.023437-20.535156-37.566406-15.609375-7.25 2.453125-12.925781 7.261719-16.550781 13.238282-5.261719 8.679687-12.945313 15.628906-22.324219 19.511718l-73.570312 30.476563-68.933594 28.550781-73.570313 30.472656c-9.378906 3.886719-19.726562 4.40625-29.585937 1.988282-6.785156-1.664063-14.203125-1.046876-21.058594 2.34375-13.769531 6.800781-20.484375 23.066406-15.527344 37.601562 5.820313 17.0625 24.707032 25.421875 41.097656 18.632812 6.476563-2.683593 11.550782-7.308593 14.832032-12.925781 5.039062-8.613281 12.851562-15.265625 22.070312-19.085937l73.570313-30.472656-30.472657 73.570312c-3.820312 9.21875-10.472656 17.03125-19.085937 22.066406-5.617187 3.285156-10.242187 8.359375-12.925781 14.832032-6.53125 15.769531.957031 33.847656 16.726562 40.378906 15.769532 6.535156 33.847656-.953125 40.378906-16.726563 2.679688-6.472656 2.996094-13.332031 1.347657-19.625-2.527344-9.652343-1.707031-19.878906 2.109375-29.101562l30.476562-73.570313 30.472656 73.570313c3.886719 9.378906 4.402344 19.726562 1.988282 29.585937-1.664063 6.789063-1.046875 14.203125 2.339844 21.0625 6.800781 13.765625 23.070312 20.480469 37.601562 15.523438 17.0625-5.816406 25.425781-24.707032 18.632812-41.097656-2.679687-6.472657-7.308593-11.546876-12.921874-14.832032-8.617188-5.039062-15.265626-12.847656-19.085938-22.070312l-30.476562-73.570313 73.570312 30.472657c9.222656 3.820312 17.035156 10.472656 22.070312 19.085937 3.285157 5.617187 8.359376 10.242187 14.832032 12.925781 15.769531 6.53125 33.847656-.957031 40.378906-16.726562 6.53125-15.765625-.957031-33.84375-16.726562-40.375zm0 0" fill="#5c87bd"/><g fill="#456ea2"><path d="m281.757812 200.953125c0 14.222656-11.53125 25.753906-25.757812 25.753906-14.222656 0-25.753906-11.53125-25.753906-25.753906 0-14.226563 11.53125-25.757813 25.753906-25.757813 14.226562 0 25.757812 11.53125 25.757812 25.757813zm0 0"/><path d="m281.757812 312.25c0 14.222656-11.53125 25.753906-25.757812 25.753906-14.222656 0-25.753906-11.53125-25.753906-25.753906 0-14.226562 11.53125-25.757812 25.753906-25.757812 14.226562 0 25.757812 11.53125 25.757812 25.757812zm0 0"/><path d="m337.402344 256.601562c0 14.222657-11.527344 25.753907-25.753906 25.753907-14.222657 0-25.753907-11.53125-25.753907-25.753907 0-14.226562 11.53125-25.757812 25.753907-25.757812 14.226562 0 25.753906 11.53125 25.753906 25.757812zm0 0"/><path d="m226.109375 256.601562c0 14.222657-11.53125 25.753907-25.757813 25.753907-14.222656 0-25.753906-11.53125-25.753906-25.753907 0-14.226562 11.53125-25.757812 25.753906-25.757812 14.226563 0 25.757813 11.53125 25.757813 25.757812zm0 0"/></g></svg>